<?xml version="1.0" encoding="iso-8859-1"?>
<!-- Generator: Adobe Illustrator 21.0.0, SVG Export Plug-In . SVG Version: 6.00 Build 0)  -->
<svg xmlns="http://www.w3.org/2000/svg" xmlns:xlink="http://www.w3.org/1999/xlink" version="1.1" id="Capa_1" x="0px" y="0px" viewBox="0 0 512 512" style="enable-background:new 0 0 512 512;" xml:space="preserve" width="512" height="512">
<g id="XMLID_1143_">
	<g id="XMLID_1145_">
		<g id="XMLID_1813_">
			<g id="XMLID_1814_">
				<g id="XMLID_1843_">
					<g id="XMLID_1844_">
						<g id="XMLID_1845_">
							<g id="XMLID_1846_">
								<g id="XMLID_1847_">
									<g id="XMLID_1848_">
										<g id="XMLID_1849_">
											<g id="XMLID_1850_">
												<g id="XMLID_1851_">
													<g id="XMLID_1853_">
														<circle id="XMLID_1860_" style="fill:#FF3008;" cx="256" cy="256" r="256"/>
													</g>
												</g>
											</g>
										</g>
									</g>
								</g>
							</g>
						</g>
					</g>
				</g>
			</g>
		</g>
	</g>
	<g id="XMLID_1144_">
		<path id="XMLID_1741_" style="fill:#C2001B;" d="M512,256c0-0.122-0.004-0.243-0.005-0.365l-71.837-71.837    c-7.908-9.222-18.066-16.449-29.634-20.825L344.28,96.92c-19.476-21.782-49.819-36.444-88.281-36.444    c-69.687,0-112.743,48.121-112.743,99.547c-5.135-1.143-10.466-1.766-15.945-1.766c-40.35,0-73.061,32.711-73.061,73.061    c0,19.5,7.65,37.205,20.102,50.304l62.555,62.501v80.127l85.564,85.564C233.446,511.25,244.635,512,256,512    C397.385,512,512,397.385,512,256z"/>
		<g id="XMLID_1725_">
			<rect id="XMLID_1736_" x="136.908" y="275.686" style="fill:#FFF5CB;" width="238.183" height="122.302"/>
			<rect id="XMLID_1735_" x="255.999" y="275.69" style="fill:#FFED97;" width="119.09" height="122.3"/>
			<g id="XMLID_1730_">
				
					<rect id="XMLID_1734_" x="162.263" y="276.594" transform="matrix(-1 -1.224647e-16 1.224647e-16 -1 351.3033 674.5813)" style="fill:#FFED97;" width="26.777" height="121.394"/>
				
					<rect id="XMLID_1733_" x="215.828" y="276.594" transform="matrix(-1 -1.224647e-16 1.224647e-16 -1 458.4336 674.5813)" style="fill:#FFED97;" width="26.777" height="121.394"/>
				
					<rect id="XMLID_1732_" x="269.393" y="276.594" transform="matrix(-1 -1.224647e-16 1.224647e-16 -1 565.5638 674.5813)" style="fill:#FFE047;" width="26.777" height="121.394"/>
				
					<rect id="XMLID_1731_" x="322.958" y="276.594" transform="matrix(-1 -1.224647e-16 1.224647e-16 -1 672.694 674.5813)" style="fill:#FFE047;" width="26.777" height="121.394"/>
			</g>
			<path id="XMLID_1729_" style="fill:#FFFFFF;" d="M384.687,158.256c-5.479,0-10.81,0.622-15.945,1.766     c0-51.426-43.056-99.547-112.743-99.547c-69.687,0-112.743,48.121-112.743,99.547c-5.135-1.143-10.466-1.766-15.945-1.766     c-40.35,0-73.061,32.711-73.061,73.061s32.711,73.061,73.061,73.061c22.321,0,42.291-10.022,55.693-25.797     c19.95,16.13,45.341,25.797,72.995,25.797s53.045-9.667,72.994-25.797c13.401,15.776,33.371,25.797,55.693,25.797     c40.35,0,73.061-32.711,73.061-73.061S425.037,158.256,384.687,158.256z"/>
			<path id="XMLID_1728_" style="fill:#FFF5CB;" d="M457.749,231.32c0,40.35-32.71,73.06-73.06,73.06c-3.26,0-6.46-0.21-9.6-0.63     c-18.41-2.42-34.65-11.69-46.1-25.17c-19.95,16.13-45.34,25.8-72.99,25.8V60.48c69.69,0,112.74,48.12,112.74,99.54     c5.14-1.14,10.47-1.76,15.95-1.76C425.039,158.26,457.749,190.97,457.749,231.32z"/>
			<rect id="XMLID_1727_" x="136.908" y="384.726" style="fill:#FFFFFF;" width="238.183" height="39.524"/>
			<rect id="XMLID_1726_" x="255.999" y="384.73" style="fill:#FFF5CB;" width="119.09" height="39.52"/>
		</g>
	</g>
</g>















</svg>
